<svg xmlns="http://www.w3.org/2000/svg" viewBox="0 0 512 512" role="img" aria-labelledby="title desc">
  <title id="title">Logo Bidang Sumber Daya Air Dinas PU Kota Dumai</title>
  <desc id="desc">Logo lingkaran biru dengan lanskap kota, air, konstruksi, dan teks Bidang Sumber Daya Air Dinas PU Kota Dumai.</desc>
  <defs>
    <linearGradient id="sky" x1="0" x2="0" y1="0" y2="1">
      <stop offset="0" stop-color="#82cdf7"/>
      <stop offset="0.58" stop-color="#d7f3ff"/>
      <stop offset="1" stop-color="#ffffff"/>
    </linearGradient>
    <linearGradient id="water" x1="0" x2="1" y1="0" y2="1">
      <stop offset="0" stop-color="#0d85d8"/>
      <stop offset="1" stop-color="#004fa3"/>
    </linearGradient>
    <clipPath id="innerClip">
      <circle cx="256" cy="256" r="173"/>
    </clipPath>
    <path id="topTextPath" d="M 76 256 A 180 180 0 0 1 436 256"/>
    <path id="bottomTextPath" d="M 436 256 A 180 180 0 0 1 76 256"/>
  </defs>

  <circle cx="256" cy="256" r="244" fill="#f4c51f"/>
  <circle cx="256" cy="256" r="235" fill="#01469b"/>
  <circle cx="256" cy="256" r="190" fill="#f5f7fb"/>
  <circle cx="256" cy="256" r="174" fill="url(#sky)"/>

  <g clip-path="url(#innerClip)">
    <rect x="66" y="70" width="380" height="210" fill="url(#sky)"/>
    <circle cx="268" cy="154" r="34" fill="#ffd033"/>
    <g stroke="#ffffff" stroke-width="3" opacity="0.8">
      <path d="M268 116V82"/>
      <path d="M244 126l-22-28"/>
      <path d="M292 126l22-28"/>
      <path d="M228 152h-36"/>
      <path d="M308 152h36"/>
    </g>

    <path d="M61 254 C126 205 161 214 213 190 C260 169 307 184 352 206 C389 225 421 216 451 194 L451 286 L61 286Z" fill="#72b843"/>
    <path d="M57 286 C118 244 175 246 226 219 C283 190 348 216 448 242 L448 318 L57 318Z" fill="#328f3f"/>
    <path d="M79 294 C143 277 206 285 261 308 C320 333 377 329 443 314 L443 454 L79 454Z" fill="url(#water)"/>

    <g fill="#0c4c9a">
      <rect x="130" y="134" width="32" height="82"/>
      <rect x="167" y="106" width="35" height="111"/>
      <rect x="209" y="145" width="42" height="73"/>
      <rect x="276" y="162" width="52" height="56"/>
    </g>
    <g fill="#dff4ff">
      <rect x="139" y="147" width="8" height="10"/>
      <rect x="154" y="147" width="8" height="10"/>
      <rect x="176" y="121" width="8" height="10"/>
      <rect x="191" y="121" width="8" height="10"/>
      <rect x="176" y="141" width="8" height="10"/>
      <rect x="191" y="141" width="8" height="10"/>
      <rect x="219" y="158" width="9" height="10"/>
      <rect x="235" y="158" width="9" height="10"/>
      <rect x="291" y="176" width="12" height="9"/>
      <rect x="310" y="176" width="12" height="9"/>
    </g>

    <g fill="#ffffff" opacity="0.95">
      <path d="M349 143c14-9 24-6 33 5c-16-4-24-2-33 8c-4-2-4-9 0-13z"/>
      <path d="M384 166c12-8 21-5 29 4c-13-3-21-1-28 7c-4-1-4-7-1-11z"/>
    </g>

    <g transform="translate(339 265) rotate(8)">
      <ellipse cx="64" cy="42" rx="59" ry="41" fill="#e5e7eb" stroke="#263238" stroke-width="5"/>
      <ellipse cx="64" cy="42" rx="34" ry="25" fill="#263238"/>
      <rect x="4" y="6" width="70" height="73" rx="12" fill="#d1d5db" stroke="#263238" stroke-width="4"/>
      <path d="M43 38 C22 54 9 77 -6 105 C39 118 84 107 111 80 C92 62 72 47 43 38Z" fill="#0ea5e9"/>
      <path d="M39 44 C23 65 20 78 11 98" fill="#ffffff" stroke="#ffffff" stroke-width="8" stroke-linecap="round"/>
      <path d="M61 50 C48 65 43 78 35 97" fill="#ffffff" stroke="#ffffff" stroke-width="7" stroke-linecap="round"/>
    </g>

    <g transform="translate(94 289)">
      <rect x="0" y="67" width="78" height="34" rx="5" fill="#374151"/>
      <rect x="12" y="50" width="46" height="27" rx="4" fill="#f6a000" stroke="#202020" stroke-width="3"/>
      <rect x="18" y="55" width="24" height="15" fill="#8ee4ff"/>
      <path d="M53 58 C83 49 94 30 108 4" fill="none" stroke="#202020" stroke-width="17" stroke-linecap="round"/>
      <path d="M53 58 C83 49 94 30 108 4" fill="none" stroke="#f6a000" stroke-width="10" stroke-linecap="round"/>
      <path d="M107 4 L134 39" fill="none" stroke="#202020" stroke-width="15" stroke-linecap="round"/>
      <path d="M107 4 L134 39" fill="none" stroke="#f6a000" stroke-width="9" stroke-linecap="round"/>
      <path d="M130 35 L145 31 L142 53 L126 51Z" fill="#2b2b2b"/>
      <circle cx="20" cy="101" r="12" fill="#202020"/>
      <circle cx="62" cy="101" r="12" fill="#202020"/>
      <path d="M-10 111 C35 96 95 107 138 91 L142 123 L-10 123Z" fill="#8dbb2f"/>
    </g>

    <g fill="none" stroke="#ffffff" stroke-width="7" stroke-linecap="round" opacity="0.95">
      <path d="M101 372 C136 356 164 390 199 372 C234 354 266 392 304 373"/>
      <path d="M129 407 C168 390 197 424 238 404 C280 385 315 421 356 399"/>
    </g>

    <path d="M80 323 C132 310 164 319 216 336 C271 354 328 356 432 337" fill="none" stroke="#ffffff" stroke-width="14" opacity="0.9"/>
    <path d="M72 337 C135 324 177 334 228 350 C283 367 343 365 443 350" fill="none" stroke="#0b64bd" stroke-width="9" opacity="0.9"/>
  </g>

  <circle cx="256" cy="256" r="174" fill="none" stroke="#ffffff" stroke-width="8"/>
  <circle cx="256" cy="256" r="193" fill="none" stroke="#f4c51f" stroke-width="4"/>

  <g fill="#ffffff">
    <path d="M55 239l9 18 20 3-14 14 3 20-18-9-18 9 3-20-14-14 20-3z"/>
    <path d="M457 239l9 18 20 3-14 14 3 20-18-9-18 9 3-20-14-14 20-3z"/>
  </g>

  <g font-family="Arial, Helvetica, sans-serif" font-weight="900" letter-spacing="4" fill="#f7d63e">
    <text font-size="31">
      <textPath href="#topTextPath" startOffset="50%" text-anchor="middle">BIDANG SUMBER DAYA AIR</textPath>
    </text>
    <text font-size="31">
      <textPath href="#bottomTextPath" startOffset="50%" text-anchor="middle">DINAS PU KOTA DUMAI</textPath>
    </text>
  </g>
</svg>
